<svg id="big-header-logo" xmlns="http://www.w3.org/2000/svg" viewBox="0 0 54.72 36.65"><defs><style>.cls-1{fill:#c00;}.cls-2{fill:#f33;}.cls-3{fill:#09c;}.cls-4{fill:#3cf;}</style></defs><title>dideo2</title><path class="cls-1" d="M32.8,18.3l-11,11L26.5,34a8.87,8.87,0,0,0,12.6,0l4.7-4.7Z" transform="translate(0 0.03)"/><rect class="cls-2" x="36.01" y="10.54" width="15.5" height="15.5" transform="translate(-0.12 36.33) rotate(-45)"/><path class="cls-1" d="M26.5,2.6,21.8,7.3l11,11,11-11L39.1,2.6A8.87,8.87,0,0,0,26.5,2.6Z" transform="translate(0 0.03)"/><path class="cls-3" d="M11,18.3,0,29.3,4.7,34a8.87,8.87,0,0,0,12.6,0L22,29.3Z" transform="translate(0 0.03)"/><rect class="cls-4" x="14.19" y="10.5" width="15.5" height="15.5" transform="translate(-6.48 20.89) rotate(-45)"/><path class="cls-3" d="M4.7,2.6,0,7.3l11,11,11-11L17.3,2.6A8.87,8.87,0,0,0,4.7,2.6Z" transform="translate(0 0.03)"/></svg>