<svg id="Layer_1" data-name="Layer 1" xmlns="http://www.w3.org/2000/svg" xmlns:xlink="http://www.w3.org/1999/xlink" viewBox="0 0 33.4 49.33"><defs><style>.cls-1{fill:url(#linear-gradient);}.cls-2{fill:#fff;}</style><linearGradient id="linear-gradient" x1="-1171.95" y1="-719.14" x2="-1170.95" y2="-719.43" gradientTransform="translate(39148.97 32640.86) scale(33.4 45.34)" gradientUnits="userSpaceOnUse"><stop offset="0"/><stop offset="1"/></linearGradient></defs><title>virgool</title><path id="Shape" class="cls-1" d="M17.2,50l-8-5.46C10.86,42.2,12.47,40,14,37.85a35.28,35.28,0,0,1-4.84-2.09C3.39,32.22.28,27.11.77,20.23,1.28,13.09,5.1,8.08,11.71,5.69A16.55,16.55,0,0,1,33.82,18.11a14.87,14.87,0,0,1-1.71,10.71c-2,3.3-4.31,6.48-6.55,9.65-2.57,3.62-5.21,7.19-7.81,10.77C17.6,49.44,17.45,49.64,17.2,50Z" transform="translate(-0.72 -0.62)"/><g id="Fill-1"><path id="path-2" d="M18.72.62,23.4,3.33c-.81,1.33-4.09,7-4.85,8.21a21.13,21.13,0,0,1,2.78,1,8.88,8.88,0,0,1,5.33,8.3,8.75,8.75,0,0,1-5.48,8.57,9.25,9.25,0,0,1-12.86-6,8.23,8.23,0,0,1,.51-6.05c1-1.93,2.13-3.78,3.25-5.66" transform="translate(-0.72 -0.62)"/><path id="path-2-2" data-name="path-2" class="cls-2" d="M18.39.62l4.69,2.71c-.81,1.33-4.1,7-4.86,8.21a20.78,20.78,0,0,1,2.79,1,8.92,8.92,0,0,1,5.33,8.3,8.77,8.77,0,0,1-5.48,8.58A9.26,9.26,0,0,1,8,23.39a8.16,8.16,0,0,1,.51-6c1-1.93,2.13-3.79,3.25-5.67" transform="translate(-0.72 -0.62)"/></g></svg>